<svg width="388" height="92" viewBox="0 0 388 92" fill="none" xmlns="http://www.w3.org/2000/svg">
<path d="M60.768 1.78401V11.256H36.448V91H24.8V11.256H0.35199V1.78401H60.768Z" stroke="white" stroke-width="5"/>
<path d="M127.842 71.16H88.93L81.762 91H69.474L101.73 2.29601H115.17L147.298 91H135.01L127.842 71.16ZM124.514 61.688L108.386 16.632L92.258 61.688H124.514Z" stroke="white" stroke-width="5"/>
<path d="M173.004 81.528H204.236V91H161.356V1.78401H173.004V81.528Z" stroke="white" stroke-width="5"/>
<path d="M257.054 91.896C248.777 91.896 241.225 89.976 234.398 86.136C227.571 82.2107 222.153 76.792 218.142 69.88C214.217 62.8827 212.254 55.032 212.254 46.328C212.254 37.624 214.217 29.816 218.142 22.904C222.153 15.9067 227.571 10.488 234.398 6.64801C241.225 2.72268 248.777 0.76001 257.054 0.76001C265.417 0.76001 273.011 2.72268 279.838 6.64801C286.665 10.488 292.041 15.864 295.966 22.776C299.891 29.688 301.854 37.5387 301.854 46.328C301.854 55.1174 299.891 62.968 295.966 69.88C292.041 76.792 286.665 82.2107 279.838 86.136C273.011 89.976 265.417 91.896 257.054 91.896ZM257.054 81.784C263.283 81.784 268.873 80.3333 273.822 77.432C278.857 74.5307 282.782 70.392 285.598 65.016C288.499 59.64 289.95 53.4107 289.95 46.328C289.95 39.16 288.499 32.9307 285.598 27.64C282.782 22.264 278.899 18.1253 273.95 15.224C269.001 12.3227 263.369 10.872 257.054 10.872C250.739 10.872 245.107 12.3227 240.158 15.224C235.209 18.1253 231.283 22.264 228.382 27.64C225.566 32.9307 224.158 39.16 224.158 46.328C224.158 53.4107 225.566 59.64 228.382 65.016C231.283 70.392 235.209 74.5307 240.158 77.432C245.193 80.3333 250.825 81.784 257.054 81.784Z" stroke="white" stroke-width="5"/>
<path d="M387.375 91H375.727L328.879 19.96V91H317.231V1.65601H328.879L375.727 72.568V1.65601H387.375V91Z" stroke="white" stroke-width="5"/>
</svg>
